# xmcd
#
# Track frame offsets: 
#        150
#        14881
#        37129
#        51725
#        70739
#        93813
#        115059
#        138215
#        158858
#        179788
#        207742
#        221189
#        238909
#        263112
#        284346
#        304162
#        324936
#
# Disc length: 4607 seconds
#
# Revision: 1
# Processed by: cddbd v1.5.2PL0 Copyright (c) Steve Scherf et al.
# Submitted via: ExactAudioCopy v0.95b4
#
DISCID=1211fd11
DTITLE=Eric Clapton - Complete Clapton [CD2]
DYEAR=2007
DGENRE=Rock
TTITLE0=Eric Clapton - I've Got A Rock 'N' Roll Heart
TTITLE1=Eric Clapton - She's Waiting
TTITLE2=Eric Clapton - Forever Man
TTITLE3=Eric Clapton - It's In The Way That You Use It
TTITLE4=Eric Clapton - Miss You
TTITLE5=Eric Clapton - Pretending
TTITLE6=Eric Clapton - Bad Love
TTITLE7=Eric Clapton - Tears In Heaven
TTITLE8=Eric Clapton - Layla (Unplagged)
TTITLE9=Eric Clapton - Running On Faith (Unplagged)
TTITLE10=Eric Clapton - Motherless Child
TTITLE11=Eric Clapton - Change The World
TTITLE12=Eric Clapton - My Father's Eyes
TTITLE13=Eric Clapton - Blue Eyes Blue
TTITLE14=Eric Clapton and B.B. King - Riding With The King
TTITLE15=Eric Clapton - Say What You Will
TTITLE16=J.J. Cale and Eric Clapton - Ride The River
EXTD=
EXTT0=
EXTT1=
EXTT2=
EXTT3=
EXTT4=
EXTT5=
EXTT6=
EXTT7=
EXTT8=
EXTT9=
EXTT10=
EXTT11=
EXTT12=
EXTT13=
EXTT14=
EXTT15=
EXTT16=
PLAYORDER=
